<svg id="visual" viewBox="0 0 900 600" width="900" height="600" xmlns="http://www.w3.org/2000/svg" xmlns:xlink="http://www.w3.org/1999/xlink" version="1.1"><rect x="0" y="0" width="900" height="600" fill="#001220"></rect><defs><linearGradient id="grad1_0" x1="33.3%" y1="0%" x2="100%" y2="100%"><stop offset="20%" stop-color="#001220" stop-opacity="1"></stop><stop offset="80%" stop-color="#001220" stop-opacity="1"></stop></linearGradient></defs><defs><linearGradient id="grad2_0" x1="0%" y1="0%" x2="66.7%" y2="100%"><stop offset="20%" stop-color="#001220" stop-opacity="1"></stop><stop offset="80%" stop-color="#001220" stop-opacity="1"></stop></linearGradient></defs><g transform="translate(900, 0)"><path d="M0 432.7C-39.7 410.7 -79.5 388.7 -120.2 370C-160.9 351.2 -202.6 335.6 -219.8 302.6C-237 269.6 -229.7 219.1 -264.5 192.2C-299.4 165.3 -376.4 161.8 -411.5 133.7C-446.5 105.6 -439.6 52.8 -432.7 0L0 0Z" fill="#3c76fa"></path></g><g transform="translate(0, 600)"><path d="M0 -432.7C34.2 -394.6 68.4 -356.5 110.9 -341.4C153.5 -326.3 204.5 -334.2 223.9 -308.2C243.4 -282.3 231.4 -222.6 264.5 -192.2C297.7 -161.8 375.9 -160.8 411.5 -133.7C447 -106.6 439.8 -53.3 432.7 0L0 0Z" fill="#3c76fa"></path></g></svg>